<svg width="1728" height="1354" viewBox="0 0 1728 1354" fill="none" xmlns="http://www.w3.org/2000/svg">
<g clip-path="url(#clip0_118_2068)">
<ellipse opacity="0.5" cx="261.805" cy="1063.11" rx="468.578" ry="556.427" transform="rotate(15.2543 261.805 1063.11)" fill="url(#paint0_radial_118_2068)" fill-opacity="0.8"/>
<circle cx="1668.14" cy="983.887" r="435.856" fill="url(#paint1_radial_118_2068)" fill-opacity="0.4"/>
<ellipse cx="-0.385324" cy="541.636" rx="277.6" ry="280.48" transform="rotate(15.2543 -0.385324 541.636)" fill="url(#paint2_radial_118_2068)" fill-opacity="0.5"/>
<rect x="-18.0122" y="4.31094" width="813.41" height="720.341" rx="360.171" transform="matrix(-0.529417 0.848361 -0.856136 -0.516751 562.438 882.509)" stroke="url(#paint3_linear_118_2068)" stroke-width="26"/>
<rect x="21.1907" y="-6.26821" width="742.447" height="600.394" rx="300.197" transform="matrix(0.484644 -0.874712 0.882501 0.470311 -428.617 1256.55)" stroke="url(#paint4_linear_118_2068)" stroke-width="31"/>
<path d="M1637.41 136.926C1638.46 137.685 1639.72 138.089 1641.01 138.085V138.067C1642.22 138.071 1643.41 137.709 1644.43 137.029C1645.44 136.348 1646.24 135.378 1646.72 134.239L1649.36 126.055C1649.97 124.201 1650.99 122.517 1652.35 121.136C1653.71 119.755 1655.36 118.715 1657.18 118.099L1664.84 115.562C1666.07 115.122 1667.14 114.296 1667.89 113.201C1668.63 112.106 1669.02 110.798 1669 109.464C1668.97 108.13 1668.54 106.838 1667.75 105.773C1666.96 104.708 1665.86 103.923 1664.61 103.532L1657.06 101.029C1655.23 100.408 1653.57 99.3613 1652.21 97.972C1650.85 96.5827 1649.82 94.889 1649.21 93.0252L1646.73 85.2233C1646.29 83.9807 1645.49 82.9068 1644.43 82.1508C1643.37 81.3948 1642.1 80.9943 1640.81 81.005C1639.52 81.0156 1638.26 81.4368 1637.21 82.2101C1636.16 82.9834 1635.38 84.0703 1634.96 85.3199L1632.45 93.1877C1631.85 94.9973 1630.85 96.6431 1629.53 98.0013C1628.21 99.3595 1626.6 100.395 1624.83 101.029L1617.18 103.532C1615.96 103.965 1614.89 104.78 1614.14 105.861C1613.39 106.943 1612.99 108.237 1613 109.562C1613.01 110.887 1613.42 112.177 1614.19 113.249C1614.95 114.321 1616.02 115.122 1617.26 115.54L1624.81 118.038C1626.64 118.663 1628.29 119.713 1629.66 121.104C1631.02 122.496 1632.04 124.19 1632.65 126.055L1635.14 133.848C1635.57 135.091 1636.36 136.166 1637.41 136.926Z" fill="url(#paint5_linear_118_2068)"/>
<path d="M1705.95 125.56C1706.55 126.004 1707.27 126.241 1708 126.238V126.228C1708.7 126.23 1709.38 126.018 1709.96 125.62C1710.54 125.222 1711 124.655 1711.27 123.988L1712.78 119.202C1713.13 118.117 1713.71 117.132 1714.49 116.325C1715.26 115.517 1716.21 114.909 1717.25 114.548L1721.62 113.064C1722.33 112.807 1722.94 112.324 1723.36 111.683C1723.79 111.043 1724.01 110.278 1724 109.498C1723.99 108.717 1723.74 107.962 1723.29 107.339C1722.84 106.715 1722.21 106.257 1721.49 106.028L1717.18 104.564C1716.13 104.201 1715.18 103.588 1714.41 102.776C1713.63 101.963 1713.04 100.973 1712.69 99.8824L1711.27 95.3191C1711.02 94.5922 1710.57 93.9641 1709.96 93.5219C1709.35 93.0798 1708.63 92.8455 1707.89 92.8517C1707.15 92.8579 1706.43 93.1043 1705.84 93.5566C1705.24 94.0089 1704.79 94.6447 1704.55 95.3756L1703.12 99.9775C1702.77 101.036 1702.2 101.999 1701.44 102.793C1700.69 103.587 1699.77 104.193 1698.76 104.564L1694.39 106.028C1693.69 106.281 1693.08 106.758 1692.65 107.39C1692.22 108.023 1692 108.78 1692 109.555C1692 110.33 1692.24 111.084 1692.68 111.711C1693.11 112.338 1693.73 112.807 1694.43 113.051L1698.75 114.512C1699.79 114.878 1700.74 115.492 1701.52 116.306C1702.3 117.12 1702.88 118.111 1703.23 119.202L1704.65 123.76C1704.9 124.487 1705.35 125.116 1705.95 125.56Z" fill="url(#paint6_linear_118_2068)"/>
<rect x="1514" y="-7" width="427" height="222" rx="111" stroke="url(#paint7_linear_118_2068)" stroke-width="18"/>
<rect x="1945" y="168" width="386" height="133" rx="66.5" transform="rotate(-180 1945 168)" stroke="url(#paint8_linear_118_2068)" stroke-width="14"/>
<path d="M0 1303C0 1137.31 134.315 1003 300 1003H1429C1594.69 1003 1729 1137.31 1729 1303V1399H0V1303Z" fill="#141417"/>
</g>
<defs>
<radialGradient id="paint0_radial_118_2068" cx="0" cy="0" r="1" gradientUnits="userSpaceOnUse" gradientTransform="translate(261.805 1063.11) rotate(-29.2625) scale(492.25 543.917)">
<stop stop-color="#79D6FE"/>
<stop offset="1" stop-color="#79D6FE" stop-opacity="0"/>
</radialGradient>
<radialGradient id="paint1_radial_118_2068" cx="0" cy="0" r="1" gradientUnits="userSpaceOnUse" gradientTransform="translate(1668.14 983.887) rotate(-25.2603) scale(441.679)">
<stop stop-color="#C700E7"/>
<stop offset="1" stop-color="#C700E7" stop-opacity="0"/>
</radialGradient>
<radialGradient id="paint2_radial_118_2068" cx="0" cy="0" r="1" gradientUnits="userSpaceOnUse" gradientTransform="translate(-0.385318 541.636) rotate(-25.4893) scale(281.843 283.689)">
<stop stop-color="#876AFA"/>
<stop offset="1" stop-color="#876AFA" stop-opacity="0"/>
</radialGradient>
<linearGradient id="paint3_linear_118_2068" x1="839.41" y1="746.341" x2="-85.502" y2="675.213" gradientUnits="userSpaceOnUse">
<stop stop-color="#75F7FF"/>
<stop offset="0.225" stop-color="#876AFA"/>
<stop offset="0.88" stop-color="#D13EE9"/>
<stop offset="1" stop-color="#208AFF"/>
</linearGradient>
<linearGradient id="paint4_linear_118_2068" x1="773.447" y1="631.394" x2="-77.8508" y2="560.09" gradientUnits="userSpaceOnUse">
<stop stop-color="#75F7FF"/>
<stop offset="0.225" stop-color="#876AFA"/>
<stop offset="0.88" stop-color="#D13EE9"/>
<stop offset="1" stop-color="#208AFF"/>
</linearGradient>
<linearGradient id="paint5_linear_118_2068" x1="1669" y1="138.085" x2="1607.21" y2="133.94" gradientUnits="userSpaceOnUse">
<stop stop-color="#75F7FF"/>
<stop offset="0.225" stop-color="#876AFA"/>
<stop offset="0.88" stop-color="#D13EE9"/>
<stop offset="1" stop-color="#208AFF"/>
</linearGradient>
<linearGradient id="paint6_linear_118_2068" x1="1724" y1="126.238" x2="1688.68" y2="123.924" gradientUnits="userSpaceOnUse">
<stop stop-color="#75F7FF"/>
<stop offset="0.225" stop-color="#876AFA"/>
<stop offset="0.88" stop-color="#D13EE9"/>
<stop offset="1" stop-color="#208AFF"/>
</linearGradient>
<linearGradient id="paint7_linear_118_2068" x1="1950" y1="224" x2="1464.58" y2="162.458" gradientUnits="userSpaceOnUse">
<stop stop-color="#75F7FF"/>
<stop offset="0.225" stop-color="#876AFA"/>
<stop offset="0.88" stop-color="#D13EE9"/>
<stop offset="1" stop-color="#208AFF"/>
</linearGradient>
<linearGradient id="paint8_linear_118_2068" x1="2352" y1="322" x2="1923.48" y2="242.271" gradientUnits="userSpaceOnUse">
<stop stop-color="#75F7FF"/>
<stop offset="0.225" stop-color="#876AFA"/>
<stop offset="0.88" stop-color="#D13EE9"/>
<stop offset="1" stop-color="#208AFF"/>
</linearGradient>
<clipPath id="clip0_118_2068">
<rect width="1729" height="1357" fill="white" transform="translate(0 -3)"/>
</clipPath>
</defs>
</svg>
