<svg width="133" height="44" viewBox="0 0 133 44" fill="none" xmlns="http://www.w3.org/2000/svg">
<rect width="132.467" height="44" rx="11.7333" fill="#37383A"/>
<path d="M24.9342 15.7422L22.4897 17.1111L23.8586 14.6666L22.4897 12.2222L24.9342 13.5911L27.3786 12.2222L26.0097 14.6666L27.3786 17.1111L24.9342 15.7422ZM36.6675 25.3244L39.1119 23.9555L37.7431 26.3999L39.1119 28.8444L36.6675 27.4755L34.2231 28.8444L35.5919 26.3999L34.2231 23.9555L36.6675 25.3244ZM39.1119 12.2222L37.7431 14.6666L39.1119 17.1111L36.6675 15.7422L34.2231 17.1111L35.5919 14.6666L34.2231 12.2222L36.6675 13.5911L39.1119 12.2222ZM30.6444 22.7626L33.0302 20.3768L30.9573 18.3039L28.5715 20.6897L30.6444 22.7626ZM31.6515 17.3946L33.9395 19.6826C34.3208 20.0444 34.3208 20.6799 33.9395 21.0613L22.5288 32.4719C22.1475 32.8533 21.5119 32.8533 21.1502 32.4719L18.8622 30.1839C18.4808 29.8222 18.4808 29.1866 18.8622 28.8053L30.2728 17.3946C30.6542 17.0133 31.2897 17.0133 31.6515 17.3946Z" fill="white"/>
<path d="M56.5433 29.7187C55.396 29.7187 54.4092 29.4757 53.5828 28.9896C52.7613 28.4986 52.1294 27.8181 51.687 26.9479C51.2495 26.0778 51.0308 25.0764 51.0308 23.9438C51.0308 22.7965 51.2519 21.7903 51.6943 20.925C52.1415 20.0549 52.7759 19.3767 53.5974 18.8906C54.419 18.3997 55.396 18.1542 56.5287 18.1542C57.5058 18.1542 58.3613 18.3316 59.0953 18.6865C59.8294 19.0413 60.4103 19.5396 60.8381 20.1812C61.2658 20.8229 61.5016 21.5764 61.5453 22.4417H58.6141C58.5315 21.8826 58.3127 21.433 57.9578 21.0927C57.6078 20.7476 57.1485 20.575 56.5797 20.575C56.0985 20.575 55.678 20.7063 55.3183 20.9687C54.9634 21.2264 54.6863 21.6031 54.487 22.099C54.2877 22.5948 54.1881 23.1951 54.1881 23.9C54.1881 24.6146 54.2853 25.2222 54.4797 25.7229C54.679 26.2236 54.9585 26.6052 55.3183 26.8677C55.678 27.1302 56.0985 27.2615 56.5797 27.2615C56.9346 27.2615 57.253 27.1885 57.5349 27.0427C57.8217 26.8969 58.0575 26.6854 58.2422 26.4083C58.4318 26.1264 58.5558 25.7885 58.6141 25.3948H61.5453C61.4967 26.2503 61.2634 27.0038 60.8453 27.6552C60.4322 28.3017 59.861 28.8073 59.1318 29.1719C58.4026 29.5365 57.5398 29.7187 56.5433 29.7187ZM63.5341 29.5V18.3H66.5456V20.2542H66.6623C66.8664 19.559 67.2091 19.034 67.6904 18.6792C68.1716 18.3194 68.7258 18.1396 69.3529 18.1396C69.5085 18.1396 69.6762 18.1493 69.856 18.1687C70.0359 18.1882 70.1939 18.2149 70.33 18.249V21.0052C70.1841 20.9615 69.9824 20.9226 69.7248 20.8885C69.4671 20.8545 69.2314 20.8375 69.0175 20.8375C68.5605 20.8375 68.1522 20.9372 67.7925 21.1365C67.4376 21.3309 67.1557 21.6031 66.9466 21.9531C66.7425 22.3031 66.6404 22.7066 66.6404 23.1635V29.5H63.5341ZM76.5188 29.7187C75.3667 29.7187 74.375 29.4854 73.5438 29.0188C72.7174 28.5472 72.0806 27.8813 71.6334 27.0208C71.1861 26.1556 70.9625 25.1323 70.9625 23.951C70.9625 22.799 71.1861 21.7878 71.6334 20.9177C72.0806 20.0476 72.7101 19.3694 73.5219 18.8833C74.3386 18.3972 75.2962 18.1542 76.3948 18.1542C77.1337 18.1542 77.8216 18.2733 78.4584 18.5115C79.1 18.7448 79.6591 19.0972 80.1355 19.5688C80.6167 20.0403 80.991 20.6333 81.2584 21.3479C81.5257 22.0576 81.6594 22.8889 81.6594 23.8417V24.6948H72.2021V22.7698H78.7355C78.7355 22.3226 78.6382 21.9264 78.4438 21.5813C78.2493 21.2361 77.9795 20.9663 77.6344 20.7719C77.2941 20.5726 76.898 20.4729 76.4459 20.4729C75.9743 20.4729 75.5563 20.5823 75.1917 20.801C74.832 21.0149 74.55 21.3042 74.3459 21.6687C74.1417 22.0285 74.0372 22.4295 74.0323 22.8719V24.7021C74.0323 25.2562 74.1344 25.7351 74.3386 26.1385C74.5476 26.542 74.8417 26.8531 75.2209 27.0719C75.6 27.2906 76.0497 27.4 76.5698 27.4C76.915 27.4 77.2309 27.3514 77.5177 27.2542C77.8045 27.1569 78.05 27.0111 78.2542 26.8167C78.4584 26.6222 78.6139 26.384 78.7209 26.1021L81.5938 26.2917C81.448 26.9819 81.149 27.5847 80.6969 28.1C80.2497 28.6104 79.6712 29.009 78.9615 29.2958C78.2566 29.5778 77.4424 29.7187 76.5188 29.7187ZM86.8802 29.7115C86.1657 29.7115 85.5289 29.5875 84.9698 29.3396C84.4108 29.0868 83.9684 28.7149 83.6427 28.224C83.3219 27.7281 83.1615 27.1108 83.1615 26.3719C83.1615 25.7497 83.2757 25.2271 83.5042 24.8042C83.7327 24.3813 84.0438 24.041 84.4375 23.7833C84.8313 23.5257 85.2785 23.3312 85.7792 23.2C86.2848 23.0688 86.8146 22.9764 87.3688 22.9229C88.0202 22.8549 88.5452 22.7917 88.9438 22.7333C89.3424 22.6701 89.6316 22.5778 89.8115 22.4563C89.9914 22.3347 90.0813 22.1549 90.0813 21.9167V21.8729C90.0813 21.4111 89.9354 21.0538 89.6438 20.801C89.357 20.5483 88.9486 20.4219 88.4188 20.4219C87.8598 20.4219 87.415 20.5458 87.0844 20.7938C86.7539 21.0368 86.5351 21.3431 86.4282 21.7125L83.5552 21.4792C83.7011 20.7986 83.9879 20.2104 84.4157 19.7146C84.8434 19.2139 85.3952 18.8299 86.0709 18.5625C86.7514 18.2903 87.5389 18.1542 88.4334 18.1542C89.0556 18.1542 89.6511 18.2271 90.2198 18.3729C90.7934 18.5188 91.3014 18.7448 91.7438 19.051C92.191 19.3573 92.5434 19.751 92.8011 20.2323C93.0587 20.7087 93.1875 21.2799 93.1875 21.9458V29.5H90.2417V27.9469H90.1542C89.9743 28.2969 89.7337 28.6056 89.4323 28.8729C89.1309 29.1354 88.7688 29.342 88.3459 29.4927C87.9229 29.6385 87.4344 29.7115 86.8802 29.7115ZM87.7698 27.5677C88.2268 27.5677 88.6302 27.4778 88.9802 27.2979C89.3302 27.1132 89.6049 26.8653 89.8042 26.5542C90.0035 26.2431 90.1032 25.8906 90.1032 25.4969V24.3083C90.0059 24.3715 89.8723 24.4299 89.7021 24.4833C89.5368 24.5319 89.3497 24.5781 89.1407 24.6219C88.9316 24.6608 88.7226 24.6972 88.5136 24.7312C88.3045 24.7604 88.115 24.7872 87.9448 24.8115C87.5802 24.8649 87.2618 24.95 86.9896 25.0667C86.7174 25.1833 86.5059 25.3413 86.3552 25.5406C86.2045 25.7351 86.1292 25.9781 86.1292 26.2698C86.1292 26.6927 86.2823 27.016 86.5886 27.2396C86.8997 27.4583 87.2934 27.5677 87.7698 27.5677ZM101.555 18.3V20.6333H94.8099V18.3H101.555ZM96.3412 15.6167H99.4474V26.0583C99.4474 26.3451 99.4912 26.5687 99.5787 26.7292C99.6662 26.8847 99.7877 26.9941 99.9433 27.0573C100.104 27.1205 100.288 27.1521 100.497 27.1521C100.643 27.1521 100.789 27.1399 100.935 27.1156C101.081 27.0865 101.193 27.0646 101.27 27.05L101.759 29.3615C101.603 29.4101 101.385 29.466 101.103 29.5292C100.821 29.5972 100.478 29.6385 100.075 29.6531C99.3259 29.6823 98.6697 29.5826 98.1058 29.3542C97.5467 29.1257 97.1117 28.7708 96.8006 28.2896C96.4894 27.8083 96.3363 27.2007 96.3412 26.4667V15.6167ZM108.562 29.7187C107.41 29.7187 106.418 29.4854 105.587 29.0188C104.761 28.5472 104.124 27.8813 103.677 27.0208C103.229 26.1556 103.006 25.1323 103.006 23.951C103.006 22.799 103.229 21.7878 103.677 20.9177C104.124 20.0476 104.753 19.3694 105.565 18.8833C106.382 18.3972 107.339 18.1542 108.438 18.1542C109.177 18.1542 109.865 18.2733 110.502 18.5115C111.143 18.7448 111.702 19.0972 112.179 19.5688C112.66 20.0403 113.034 20.6333 113.302 21.3479C113.569 22.0576 113.703 22.8889 113.703 23.8417V24.6948H104.245V22.7698H110.779C110.779 22.3226 110.681 21.9264 110.487 21.5813C110.293 21.2361 110.023 20.9663 109.678 20.7719C109.337 20.5726 108.941 20.4729 108.489 20.4729C108.018 20.4729 107.6 20.5823 107.235 20.801C106.875 21.0149 106.593 21.3042 106.389 21.6687C106.185 22.0285 106.08 22.4295 106.076 22.8719V24.7021C106.076 25.2562 106.178 25.7351 106.382 26.1385C106.591 26.542 106.885 26.8531 107.264 27.0719C107.643 27.2906 108.093 27.4 108.613 27.4C108.958 27.4 109.274 27.3514 109.561 27.2542C109.848 27.1569 110.093 27.0111 110.297 26.8167C110.502 26.6222 110.657 26.384 110.764 26.1021L113.637 26.2917C113.491 26.9819 113.192 27.5847 112.74 28.1C112.293 28.6104 111.714 29.009 111.005 29.2958C110.3 29.5778 109.486 29.7187 108.562 29.7187Z" fill="white"/>
</svg>
