<svg width="1524" height="1062" viewBox="0 0 1524 1062" fill="none" xmlns="http://www.w3.org/2000/svg">
<g clip-path="url(#clip0_129_2077)">
<rect width="1524" height="1062" rx="18" fill="#141417"/>
<path d="M1393.23 209.064C1394.62 210.097 1396.27 210.647 1397.97 210.641V210.617C1399.57 210.622 1401.13 210.13 1402.47 209.204C1403.81 208.277 1404.85 206.957 1405.49 205.407L1408.96 194.268C1409.76 191.745 1411.11 189.453 1412.9 187.574C1414.68 185.695 1416.86 184.28 1419.26 183.441L1429.33 179.987C1430.96 179.389 1432.36 178.264 1433.35 176.774C1434.33 175.284 1434.84 173.504 1434.81 171.688C1434.78 169.873 1434.2 168.115 1433.16 166.665C1432.13 165.215 1430.68 164.148 1429.04 163.615L1419.09 160.209C1416.69 159.363 1414.5 157.939 1412.71 156.048C1410.92 154.157 1409.57 151.852 1408.77 149.316L1405.49 138.697C1404.92 137.006 1403.86 135.545 1402.47 134.516C1401.07 133.487 1399.41 132.942 1397.71 132.956C1396 132.971 1394.35 133.544 1392.97 134.596C1391.59 135.649 1390.56 137.128 1390.01 138.829L1386.71 149.537C1385.91 152 1384.59 154.24 1382.85 156.088C1381.12 157.937 1379 159.345 1376.68 160.209L1366.61 163.615C1364.99 164.204 1363.59 165.313 1362.6 166.786C1361.61 168.258 1361.09 170.019 1361.1 171.823C1361.11 173.626 1361.66 175.38 1362.66 176.839C1363.67 178.299 1365.08 179.389 1366.7 179.957L1376.64 183.357C1379.05 184.209 1381.23 185.637 1383.02 187.531C1384.82 189.424 1386.17 191.731 1386.97 194.268L1390.24 204.875C1390.8 206.566 1391.85 208.03 1393.23 209.064Z" fill="url(#paint0_linear_129_2077)"/>
<path d="M1482.97 192.9C1483.76 193.486 1484.7 193.797 1485.67 193.794V193.78C1486.58 193.783 1487.47 193.504 1488.23 192.98C1488.99 192.455 1489.59 191.707 1489.95 190.83L1491.93 184.522C1492.39 183.094 1493.15 181.796 1494.17 180.732C1495.19 179.667 1496.43 178.866 1497.8 178.391L1503.53 176.436C1504.46 176.097 1505.26 175.46 1505.82 174.616C1506.38 173.772 1506.67 172.764 1506.65 171.736C1506.64 170.708 1506.31 169.713 1505.72 168.892C1505.13 168.071 1504.3 167.466 1503.37 167.164L1497.7 165.236C1496.33 164.757 1495.09 163.95 1494.07 162.88C1493.05 161.809 1492.28 160.504 1491.82 159.067L1489.95 153.055C1489.63 152.097 1489.03 151.269 1488.23 150.687C1487.44 150.104 1486.49 149.795 1485.52 149.804C1484.55 149.812 1483.61 150.136 1482.82 150.732C1482.04 151.328 1481.45 152.166 1481.14 153.129L1479.25 159.192C1478.8 160.587 1478.05 161.855 1477.06 162.902C1476.07 163.949 1474.87 164.747 1473.54 165.236L1467.8 167.164C1466.88 167.498 1466.09 168.126 1465.52 168.96C1464.96 169.793 1464.66 170.791 1464.67 171.812C1464.67 172.833 1464.99 173.827 1465.56 174.653C1466.13 175.479 1466.94 176.097 1467.86 176.419L1473.52 178.344C1474.89 178.826 1476.14 179.635 1477.16 180.707C1478.18 181.779 1478.95 183.086 1479.4 184.522L1481.27 190.528C1481.59 191.486 1482.18 192.315 1482.97 192.9Z" fill="url(#paint1_linear_129_2077)"/>
<rect x="1260.15" y="39.15" width="528.467" height="262.489" rx="131.245" stroke="url(#paint2_linear_129_2077)" stroke-width="18.3"/>
<rect x="1777.59" y="258.746" width="477.483" height="175.767" rx="87.8837" transform="rotate(-180 1777.59 258.746)" stroke="url(#paint3_linear_129_2077)" stroke-width="14.2333"/>
<circle opacity="0.5" cx="0.288363" cy="855.288" r="294.24" transform="rotate(15.2543 0.288363 855.288)" fill="url(#paint4_radial_129_2077)" fill-opacity="0.5"/>
<rect x="-18.0122" y="4.31094" width="813.41" height="720.341" rx="360.171" transform="matrix(-0.529417 0.848361 -0.856136 -0.516751 562.438 946.509)" stroke="url(#paint5_linear_129_2077)" stroke-width="26"/>
<rect x="21.1907" y="-6.26821" width="742.447" height="600.394" rx="300.197" transform="matrix(0.484644 -0.874712 0.882501 0.470311 -428.617 1320.55)" stroke="url(#paint6_linear_129_2077)" stroke-width="31"/>
<circle cx="1363" cy="980" r="394" fill="url(#paint7_radial_129_2077)" fill-opacity="0.4"/>
<ellipse cx="-0.190432" cy="538.636" rx="250.942" ry="253.546" transform="rotate(15.2543 -0.190432 538.636)" fill="url(#paint8_radial_129_2077)" fill-opacity="0.5"/>
<circle cx="70.5" cy="562.5" r="10.5" fill="white" fill-opacity="0.5"/>
<circle cx="239" cy="501" r="7" fill="white"/>
<circle cx="121" cy="622" r="7" fill="white" fill-opacity="0.25"/>
<circle cx="1331.58" cy="940.479" r="10.5" transform="rotate(-123.816 1331.58 940.479)" fill="white" fill-opacity="0.5"/>
<circle cx="1186.71" cy="834.712" r="7" transform="rotate(-123.816 1186.71 834.712)" fill="white"/>
<circle cx="1226.71" cy="105.712" r="7" transform="rotate(-123.816 1226.71 105.712)" fill="white"/>
<circle cx="1352.91" cy="865.409" r="7" transform="rotate(-123.816 1352.91 865.409)" fill="white" fill-opacity="0.25"/>
</g>
<defs>
<linearGradient id="paint0_linear_129_2077" x1="1434.81" y1="210.641" x2="1353.45" y2="205.363" gradientUnits="userSpaceOnUse">
<stop stop-color="#75F7FF"/>
<stop offset="0.225" stop-color="#876AFA"/>
<stop offset="0.88" stop-color="#D13EE9"/>
<stop offset="1" stop-color="#208AFF"/>
</linearGradient>
<linearGradient id="paint1_linear_129_2077" x1="1506.66" y1="193.794" x2="1460.31" y2="190.769" gradientUnits="userSpaceOnUse">
<stop stop-color="#75F7FF"/>
<stop offset="0.225" stop-color="#876AFA"/>
<stop offset="0.88" stop-color="#D13EE9"/>
<stop offset="1" stop-color="#208AFF"/>
</linearGradient>
<linearGradient id="paint2_linear_129_2077" x1="1797.77" y1="310.789" x2="1202.3" y2="231.506" gradientUnits="userSpaceOnUse">
<stop stop-color="#75F7FF"/>
<stop offset="0.225" stop-color="#876AFA"/>
<stop offset="0.88" stop-color="#D13EE9"/>
<stop offset="1" stop-color="#208AFF"/>
</linearGradient>
<linearGradient id="paint3_linear_129_2077" x1="2276.42" y1="455.864" x2="1747.96" y2="362.35" gradientUnits="userSpaceOnUse">
<stop stop-color="#75F7FF"/>
<stop offset="0.225" stop-color="#876AFA"/>
<stop offset="0.88" stop-color="#D13EE9"/>
<stop offset="1" stop-color="#208AFF"/>
</linearGradient>
<radialGradient id="paint4_radial_129_2077" cx="0" cy="0" r="1" gradientUnits="userSpaceOnUse" gradientTransform="translate(0.288357 855.288) rotate(-25.2603) scale(298.171)">
<stop stop-color="#79D6FE"/>
<stop offset="1" stop-color="#79D6FE" stop-opacity="0"/>
</radialGradient>
<linearGradient id="paint5_linear_129_2077" x1="839.41" y1="746.341" x2="-85.502" y2="675.213" gradientUnits="userSpaceOnUse">
<stop stop-color="#75F7FF"/>
<stop offset="0.225" stop-color="#876AFA"/>
<stop offset="0.88" stop-color="#D13EE9"/>
<stop offset="1" stop-color="#208AFF"/>
</linearGradient>
<linearGradient id="paint6_linear_129_2077" x1="773.447" y1="631.394" x2="-77.8508" y2="560.09" gradientUnits="userSpaceOnUse">
<stop stop-color="#75F7FF"/>
<stop offset="0.225" stop-color="#876AFA"/>
<stop offset="0.88" stop-color="#D13EE9"/>
<stop offset="1" stop-color="#208AFF"/>
</linearGradient>
<radialGradient id="paint7_radial_129_2077" cx="0" cy="0" r="1" gradientUnits="userSpaceOnUse" gradientTransform="translate(1363 980) rotate(-25.2603) scale(399.264)">
<stop stop-color="#C700E7"/>
<stop offset="1" stop-color="#C700E7" stop-opacity="0"/>
</radialGradient>
<radialGradient id="paint8_radial_129_2077" cx="0" cy="0" r="1" gradientUnits="userSpaceOnUse" gradientTransform="translate(-0.190418 538.636) rotate(-25.4893) scale(254.777 256.447)">
<stop stop-color="#876AFA"/>
<stop offset="1" stop-color="#876AFA" stop-opacity="0"/>
</radialGradient>
<clipPath id="clip0_129_2077">
<rect width="1524" height="1062" fill="white"/>
</clipPath>
</defs>
</svg>
